<svg width="28" height="25" viewBox="0 0 28 25" fill="none" xmlns="http://www.w3.org/2000/svg">
<path d="M13.2639 1.85336C13.3733 2.03575 13.4827 2.23638 13.5922 2.41877C13.884 2.92946 14.1758 3.44014 14.4676 3.95083C14.9054 4.69863 15.3431 5.46466 15.7808 6.21245C16.3097 7.12439 16.8387 8.05458 17.3676 8.96652C17.9512 9.96966 18.5349 10.9728 19.1003 11.9759C19.6839 12.9973 20.2858 14.0187 20.8695 15.0218C21.4166 15.9702 21.9638 16.9187 22.511 17.8488C22.9669 18.6514 23.4411 19.4539 23.8971 20.2564C24.2254 20.8218 24.5537 21.4054 24.9003 21.9708C25.0097 22.1532 25.1009 22.3356 25.2103 22.4998C25.265 22.591 25.3015 22.7004 25.3745 22.7733C25.3745 22.7916 25.3927 22.7916 25.3927 22.8098C25.4109 22.8463 25.6663 22.7551 25.6663 22.7551C25.5568 22.5727 25.4474 22.3721 25.338 22.1897C25.0462 21.679 24.7543 21.1683 24.4625 20.6576C24.0248 19.9098 23.5871 19.1438 23.1493 18.396C22.6204 17.4841 22.0915 16.5539 21.5625 15.6419C20.9789 14.6388 20.3953 13.6357 19.8298 12.6325C19.2462 11.6112 18.6443 10.5898 18.0607 9.58664C17.5135 8.63822 16.9663 7.6898 16.4192 6.75962C15.9632 5.95711 15.489 5.1546 15.033 4.35209C14.7047 3.78668 14.3764 3.20304 14.0299 2.63763C13.9205 2.45524 13.8293 2.27286 13.7198 2.10871C13.6651 2.01751 13.6286 1.90808 13.5557 1.83512C13.5557 1.81688 13.5374 1.81688 13.5374 1.79865C13.5192 1.74393 13.2639 1.85336 13.2639 1.85336Z" fill="white"/>
<path d="M12.7714 2.74686C12.8808 2.92925 12.9902 3.11164 13.0996 3.29403C13.3915 3.78648 13.6833 4.29717 13.9751 4.78962C14.4128 5.53741 14.8323 6.26697 15.2701 7.01476C15.799 7.90846 16.3097 8.82041 16.8386 9.71411C17.404 10.699 17.9877 11.7021 18.5531 12.687C19.1367 13.6902 19.7021 14.6751 20.2858 15.6782C20.8329 16.6084 21.3619 17.5386 21.909 18.487C22.365 19.2713 22.821 20.0555 23.2769 20.8398C23.6052 21.4052 23.9335 21.9706 24.2618 22.536C24.4077 22.8096 24.5719 23.0832 24.7178 23.3385C24.7178 23.3568 24.736 23.3568 24.736 23.375C24.7543 23.4115 24.8272 23.5209 24.882 23.5027C24.9367 23.5027 24.9184 23.4662 24.9002 23.4297C24.7908 23.2473 24.6813 23.065 24.5719 22.8826C24.2801 22.3901 23.9883 21.8794 23.6964 21.387C23.2587 20.6392 22.8392 19.9096 22.4015 19.1618C21.8725 18.2681 21.3619 17.3562 20.8329 16.4625C20.2675 15.4776 19.6839 14.4745 19.1185 13.4896C18.5348 12.4864 17.9694 11.5015 17.3858 10.4984C16.8386 9.5682 16.3097 8.63802 15.7625 7.6896C15.3066 6.90533 14.8506 6.12105 14.3946 5.33678C14.0663 4.77138 13.738 4.20597 13.4097 3.64057C13.2638 3.36699 13.0997 3.0934 12.9537 2.83806C12.9537 2.81982 12.9355 2.81982 12.9355 2.80158C12.9173 2.7651 12.8443 2.65567 12.7896 2.67391C12.7349 2.67391 12.7531 2.71039 12.7714 2.74686Z" fill="white"/>
<path d="M12.1877 3.78657C12.2971 3.96896 12.4066 4.15135 12.4978 4.33374C12.7896 4.82619 13.0632 5.31864 13.355 5.81109C13.7745 6.54064 14.194 7.2702 14.6135 7.99975C15.1242 8.89346 15.6348 9.76892 16.1455 10.6626C16.7109 11.6293 17.2763 12.6142 17.8235 13.5808C18.3889 14.5657 18.9543 15.5506 19.538 16.5355C20.0669 17.4475 20.5958 18.3594 21.1247 19.2896C21.5807 20.0739 22.0184 20.8399 22.4744 21.6242C22.8027 22.1896 23.1128 22.7368 23.4411 23.3022C23.5323 23.4663 23.6417 23.6487 23.7329 23.8128C23.7876 23.904 23.8241 23.9952 23.8971 24.0864C23.8971 24.1047 23.9153 24.1047 23.9153 24.1229C23.9335 24.1594 24.1889 24.05 24.1706 24.0317C24.0612 23.8493 23.9518 23.6669 23.8606 23.4846C23.5688 22.9921 23.2952 22.4997 23.0033 22.0072C22.5839 21.2776 22.1644 20.5481 21.7449 19.8185C21.2342 18.9248 20.7235 18.0494 20.2128 17.1557C19.6474 16.189 19.082 15.2041 18.5348 14.2374C17.9694 13.2525 17.404 12.2676 16.8204 11.2827C16.2914 10.3708 15.7625 9.45886 15.2336 8.52868C14.7776 7.74441 14.3399 6.97838 13.8839 6.19411C13.5556 5.6287 13.2456 5.08153 12.9173 4.51613C12.8261 4.35198 12.7166 4.16959 12.6254 4.00544C12.5707 3.91425 12.5342 3.82305 12.4613 3.73186C12.4613 3.71362 12.443 3.71362 12.443 3.69538C12.4248 3.6589 12.1695 3.76834 12.1877 3.78657Z" fill="white"/>
<path d="M2.53939 22.755C2.63058 22.5908 2.72178 22.4267 2.81297 22.2625C3.06832 21.8248 3.32366 21.3871 3.579 20.9493C3.96202 20.2927 4.3268 19.6544 4.70981 18.9978C5.16579 18.1953 5.62176 17.411 6.07773 16.6085C6.57018 15.7512 7.08087 14.8758 7.57331 14.0186C8.084 13.1431 8.59469 12.2676 9.08714 11.3922C9.56135 10.5714 10.0356 9.75066 10.5098 8.92991C10.911 8.23684 11.3123 7.562 11.6953 6.86892C11.9871 6.37647 12.2789 5.86578 12.5525 5.37333C12.6437 5.22742 12.7349 5.06327 12.8261 4.91736C12.8626 4.84441 12.9355 4.75321 12.972 4.68026C12.972 4.66202 12.9903 4.66202 12.9903 4.64378C13.0085 4.62554 12.8991 4.66202 12.8991 4.66202C12.8626 4.68026 12.7714 4.6985 12.7532 4.73497C12.662 4.89912 12.5708 5.06327 12.4796 5.22742C12.2242 5.66516 11.9689 6.10289 11.7135 6.54062C11.3305 7.19722 10.9657 7.83558 10.5827 8.49218C10.1268 9.29469 9.67078 10.079 9.21481 10.8815C8.72236 11.7387 8.21168 12.6142 7.71923 13.4714C7.20854 14.3469 6.69785 15.2223 6.2054 16.0978C5.73119 16.9185 5.25698 17.7393 4.78277 18.56C4.38151 19.2531 3.98026 19.9279 3.59724 20.621C3.30542 21.1135 3.0136 21.6242 2.74002 22.1166C2.64882 22.2625 2.55763 22.4267 2.46643 22.5726C2.42995 22.6455 2.357 22.7367 2.32052 22.8097C2.32052 22.8279 2.30228 22.8279 2.30228 22.8462C2.28404 22.8644 2.39348 22.8279 2.39348 22.8279C2.42995 22.8279 2.52115 22.7915 2.53939 22.755Z" fill="white"/>
<path d="M3.28724 23.4845C3.37843 23.3204 3.46962 23.1745 3.56082 23.0103C3.81616 22.5726 4.05327 22.1531 4.30861 21.7154C4.67339 21.077 5.03817 20.4386 5.42118 19.8003C5.87716 19.016 6.33313 18.2317 6.77086 17.4475C7.26331 16.5903 7.75576 15.733 8.24821 14.894C8.74066 14.0368 9.25134 13.1796 9.74379 12.3041C10.1998 11.5016 10.674 10.6991 11.1299 9.89659C11.513 9.22175 11.9142 8.54691 12.2972 7.85383C12.5708 7.36138 12.8626 6.86893 13.1362 6.39472C13.2639 6.15762 13.428 5.93875 13.5375 5.70165C13.5375 5.68341 13.5557 5.68341 13.5557 5.66517C13.6287 5.55574 13.3551 5.4463 13.3004 5.57398C13.2092 5.73813 13.118 5.88404 13.0268 6.04819C12.7714 6.48592 12.5343 6.90541 12.279 7.34315C11.9142 7.98151 11.5494 8.61987 11.1664 9.25823C10.7105 10.0425 10.2545 10.8268 9.81675 11.611C9.3243 12.4683 8.83185 13.3255 8.3394 14.1645C7.84695 15.0217 7.33626 15.8789 6.84381 16.7544C6.38784 17.5569 5.91363 18.3594 5.45766 19.1619C5.07464 19.8368 4.67339 20.5116 4.29037 21.2047C4.01679 21.6971 3.72497 22.1896 3.45139 22.6638C3.32371 22.9009 3.15956 23.1198 3.05013 23.3569C3.05013 23.3751 3.03189 23.3751 3.03189 23.3933C2.95894 23.5028 3.21428 23.6122 3.28724 23.4845Z" fill="white"/>
<path d="M4.01675 24.1046C4.10794 23.9404 4.19914 23.7945 4.29033 23.6304C4.52744 23.2109 4.78278 22.7914 5.01988 22.3537C5.38466 21.7335 5.74944 21.0952 6.11422 20.4751C6.55195 19.709 6.98968 18.943 7.44565 18.177C7.91986 17.338 8.41231 16.5172 8.88652 15.6782C9.37897 14.8393 9.87142 13.982 10.3456 13.143C10.8016 12.3588 11.2576 11.5745 11.7135 10.772C12.0966 10.0971 12.4796 9.44055 12.8626 8.76571C13.1362 8.2915 13.4098 7.79905 13.7016 7.32484C13.7928 7.17893 13.8657 7.03302 13.9569 6.86887C13.9934 6.79591 14.0664 6.70472 14.0846 6.63176C14.0846 6.61352 14.1028 6.61352 14.1028 6.59528C14.1028 6.61352 13.8475 6.50409 13.8293 6.55881C13.7381 6.72296 13.6469 6.86887 13.5557 7.03302C13.3186 7.45251 13.0632 7.872 12.8261 8.30974C12.4613 8.92986 12.0966 9.56822 11.7318 10.1883C11.2941 10.9544 10.8563 11.7204 10.4004 12.4864C9.92614 13.3254 9.43369 14.1462 8.95948 14.9852C8.46703 15.8241 7.97458 16.6814 7.50037 17.5204C7.0444 18.3046 6.58843 19.0889 6.13246 19.8914C5.74944 20.5663 5.36642 21.2229 4.98341 21.8977C4.70982 22.3719 4.43624 22.8644 4.14442 23.3386C4.05323 23.4845 3.98027 23.6304 3.88908 23.7945C3.8526 23.8675 3.77964 23.9587 3.7614 24.0316C3.7614 24.0499 3.74316 24.0499 3.74316 24.0681C3.7614 24.0499 3.99851 24.1411 4.01675 24.1046Z" fill="white"/>
<path d="M20.0669 20.3839C18.936 17.1556 16.5103 14.5293 15.0329 11.4469C14.7776 10.918 14.4858 10.3161 13.9386 10.1337C13.7015 10.0425 12.0965 12.3953 11.8958 12.6689C11.221 13.5991 10.6009 14.5475 10.0355 15.5324C9.47008 16.5173 8.94115 17.5387 8.48518 18.5783C8.28455 19.0525 7.51852 20.6575 7.82858 21.077C7.90153 21.1682 8.02921 21.1682 8.13864 21.1682C10.455 21.1864 12.7896 20.8764 15.0876 21.0952C16.6197 21.2412 18.17 21.6242 19.6656 21.3141C19.7933 21.2959 19.9209 21.2594 20.0121 21.1682C20.231 20.9858 20.1581 20.6575 20.0669 20.3839ZM18.4254 20.4934C17.7688 20.4934 17.0939 20.4022 16.3826 20.311C15.9996 20.2563 15.5983 20.2015 15.1971 20.1651C14.5952 20.1103 13.9568 20.0739 13.2455 20.0739C12.3883 20.0739 11.5311 20.1103 10.7103 20.1468C10.1084 20.1833 9.47008 20.2015 8.84996 20.2198C8.94115 19.9644 9.06882 19.6179 9.28769 19.1072C9.30593 19.0525 9.34241 18.9978 9.36064 18.9613C9.7619 18.0129 10.2543 17.0462 10.8562 16.0066C11.4034 15.0582 12.0235 14.1098 12.6619 13.2161C12.6801 13.1796 12.7348 13.1066 12.8078 13.0154C13.355 12.2494 13.7197 11.7569 13.9568 11.4469C14.0298 11.5746 14.1027 11.7205 14.1575 11.8481V11.8664C14.8141 13.2161 15.6348 14.4928 16.4373 15.7148C17.4769 17.3016 18.4618 18.7971 19.0637 20.4569C18.8631 20.4751 18.6442 20.4934 18.4254 20.4934Z" fill="white"/>
<path d="M17.6047 19.4902C17.2582 19.4537 16.8752 19.399 16.5104 19.3625C16.1092 19.3078 15.7079 19.2531 15.2884 19.2166C14.6683 19.1619 13.9934 19.1254 13.2457 19.1254C12.3702 19.1254 11.4947 19.1619 10.6557 19.1984C10.5281 19.1984 10.4186 19.2166 10.291 19.2166C10.674 18.3412 11.1299 17.4657 11.6771 16.499C12.206 15.5688 12.8079 14.6569 13.428 13.7997C13.4645 13.7632 13.5192 13.6902 13.5922 13.5808C13.6651 13.4714 13.7381 13.3619 13.8111 13.2708C14.3765 14.3104 15.0148 15.2953 15.6349 16.2437C16.3645 17.338 17.0576 18.3959 17.6047 19.4902Z" fill="white"/>
<path d="M15.6531 0.0111097C15.2519 0.0658263 14.96 0.412365 14.8324 0.795381C14.7594 1.03249 14.7594 1.30607 14.8871 1.5067C15.106 1.85323 15.6531 1.88971 15.9997 1.65261C16.6198 1.19664 16.711 -0.134801 15.6531 0.0111097Z" fill="white"/>
<path d="M18.1519 3.98726C17.933 3.84135 17.6047 3.80487 17.4041 3.98726C17.3129 4.06021 17.2399 4.18789 17.1852 4.29732C17.0758 4.5709 17.0028 4.86272 17.0575 5.13631C17.1123 5.40989 17.3129 5.68347 17.5865 5.75643C17.8418 5.82939 18.1154 5.71995 18.3525 5.61052C18.5531 5.51932 18.7902 5.40989 18.8085 5.19102C18.8632 4.77153 18.4984 4.20613 18.1519 3.98726Z" fill="white"/>
<path d="M19.9392 7.56204C19.6109 7.65323 19.2461 7.79914 19.1002 8.1092C18.9726 8.41926 19.1002 8.7658 19.2644 9.05762C19.4103 9.31297 19.5927 9.56831 19.848 9.71422C21.3983 10.6079 21.4713 7.10606 19.9392 7.56204Z" fill="white"/>
<path d="M22.6386 12.0671C22.4198 11.8665 22.1279 11.6658 21.8544 11.757C21.6537 11.83 21.5443 12.0124 21.4896 12.213C21.3254 12.7966 21.7267 13.4532 22.3103 13.6174C22.4198 13.6539 22.5474 13.6539 22.6569 13.6356C22.9487 13.5627 23.1128 13.2161 23.0946 12.9061C23.0764 12.596 22.8757 12.3407 22.6751 12.1036" fill="white"/>
<path d="M24.8273 15.4595C24.6996 15.35 24.5355 15.2406 24.3713 15.2588C24.2437 15.2771 24.1525 15.3683 24.0795 15.4777C23.6418 16.0431 23.6965 16.9368 24.189 17.4475C24.3349 17.6117 24.5355 17.7393 24.7544 17.7393C24.882 17.7393 25.0279 17.7028 25.1374 17.6664C25.3562 17.5752 25.5569 17.4475 25.6663 17.2469C25.7575 17.0462 25.7393 16.8091 25.6663 16.6085C25.5022 16.1708 25.1556 15.7513 24.8273 15.4595Z" fill="white"/>
<path d="M26.4688 19.2714C26.1587 19.472 25.8122 19.7456 25.8304 20.1104C25.8304 20.238 25.8851 20.3475 25.9398 20.4751C26.0675 20.7487 26.1769 21.0223 26.3776 21.2412C26.5782 21.46 26.8518 21.6242 27.1436 21.6059C27.326 21.5877 27.4901 21.5147 27.6361 21.4235C28.7669 20.7305 26.9065 19.5997 26.4688 19.2714Z" fill="white"/>
<path d="M12.3337 0.0111097C12.7349 0.0658263 13.0267 0.412365 13.1544 0.795381C13.2274 1.03249 13.2274 1.30607 13.0997 1.5067C12.8808 1.85323 12.3337 1.88971 11.9871 1.65261C11.3852 1.19664 11.2941 -0.134801 12.3337 0.0111097Z" fill="white"/>
<path d="M9.83493 3.98726C10.0538 3.84135 10.3821 3.80487 10.5827 3.98726C10.6739 4.06021 10.7469 4.18789 10.8016 4.29732C10.911 4.5709 10.984 4.86272 10.9293 5.13631C10.8745 5.40989 10.6739 5.68347 10.4003 5.75643C10.145 5.82939 9.87141 5.71995 9.6343 5.61052C9.43368 5.51932 9.19657 5.40989 9.17833 5.19102C9.12362 4.77153 9.48839 4.20613 9.83493 3.98726Z" fill="white"/>
<path d="M8.04757 7.56204C8.37587 7.65323 8.74065 7.79914 8.88656 8.1092C9.01423 8.41926 8.88656 8.7658 8.72241 9.05762C8.5765 9.31297 8.39411 9.56831 8.13877 9.71422C6.58846 10.6079 6.51551 7.10606 8.04757 7.56204Z" fill="white"/>
<path d="M5.34822 12.0671C5.56708 11.8665 5.8589 11.6658 6.13249 11.757C6.33311 11.83 6.44255 12.0124 6.49726 12.213C6.66141 12.7966 6.26016 13.4532 5.67651 13.6174C5.56708 13.6539 5.43941 13.6539 5.32998 13.6356C5.03816 13.5627 4.87401 13.2161 4.89224 12.9061C4.91048 12.596 5.11111 12.3407 5.31174 12.1036" fill="white"/>
<path d="M3.15952 15.4595C3.28719 15.35 3.45134 15.2406 3.61549 15.2588C3.74317 15.2771 3.83436 15.3683 3.90731 15.4777C4.34505 16.0431 4.29033 16.9368 3.79788 17.4475C3.65197 17.6117 3.45134 17.7393 3.23248 17.7393C3.10481 17.7393 2.95889 17.7028 2.84946 17.6664C2.63059 17.5752 2.42997 17.4475 2.32053 17.2469C2.22934 17.0462 2.24758 16.8091 2.32053 16.6085C2.48468 16.1708 2.83122 15.7513 3.15952 15.4595Z" fill="white"/>
<path d="M1.53624 19.2714C1.8463 19.472 2.19284 19.7456 2.1746 20.1104C2.1746 20.238 2.11989 20.3475 2.06517 20.4751C1.9375 20.7487 1.82806 21.0223 1.62744 21.2412C1.42681 21.46 1.15323 21.6242 0.861404 21.6059C0.679015 21.5877 0.514865 21.5147 0.368954 21.4235C-0.780095 20.7305 1.08027 19.5997 1.53624 19.2714Z" fill="white"/>
<path d="M13.8292 0.886541C13.9751 1.14189 14.121 1.39723 14.2669 1.65257C14.6682 2.32741 15.0512 3.02049 15.4525 3.69533C16.0179 4.68022 16.5833 5.66512 17.1487 6.63178C17.8235 7.79907 18.4801 8.94812 19.1549 10.1154C19.848 11.3192 20.5411 12.5229 21.2524 13.7449C21.909 14.8757 22.5474 16.0066 23.204 17.1191C23.7329 18.0493 24.2801 18.9795 24.809 19.9097C25.1555 20.5116 25.5021 21.0952 25.8486 21.6971C25.9216 21.8248 26.0128 21.9707 26.0857 22.0983C26.0857 22.1166 26.1222 22.1531 26.1222 22.1531C26.1222 22.1713 26.0675 22.2078 26.0492 22.2078C25.958 22.2807 25.8851 22.3537 25.7939 22.4266C25.0096 23.1015 24.2253 23.7946 23.4411 24.4694C23.3134 24.5788 23.1857 24.6883 23.0581 24.8159C23.1493 24.8159 23.2404 24.8159 23.3316 24.8159C22.5109 24.1046 21.7084 23.4115 20.8876 22.7002C20.6688 22.5178 20.4681 22.3354 20.2493 22.1531C20.2128 22.1166 20.0122 22.1348 19.9757 22.1531C19.1549 22.8644 18.3524 23.5574 17.5317 24.2688C17.3128 24.4512 17.1122 24.6335 16.8933 24.8159C16.9845 24.8159 17.0757 24.8159 17.1669 24.8159C16.3462 24.1046 15.5436 23.4115 14.7229 22.7002C14.504 22.5178 14.3034 22.3354 14.0845 22.1531C14.0481 22.1166 13.8474 22.1348 13.811 22.1531C12.9902 22.8644 12.1877 23.5574 11.3669 24.2688C11.1481 24.4512 10.9475 24.6335 10.7286 24.8159C10.8198 24.8159 10.911 24.8159 11.0022 24.8159C10.1814 24.1046 9.37891 23.4115 8.55816 22.7002C8.3393 22.5178 8.13867 22.3354 7.9198 22.1531C7.88332 22.1166 7.6827 22.1348 7.64622 22.1531C6.82547 22.8644 6.02296 23.5574 5.20221 24.2688C4.98334 24.4512 4.78272 24.6335 4.56385 24.8159C4.65504 24.8159 4.74624 24.8159 4.83743 24.8159C4.27203 24.3235 3.68838 23.831 3.12298 23.3386C2.72172 22.992 2.30223 22.6273 1.90098 22.2807C1.8645 22.2625 1.7733 22.1895 1.7733 22.1531C1.7733 22.1348 1.80978 22.0801 1.82802 22.0801C2.04689 21.6971 2.26575 21.3141 2.48462 20.9493C2.90411 20.238 3.32361 19.5084 3.72486 18.7971C4.27203 17.8487 4.81919 16.9003 5.36636 15.9701C5.96824 14.9122 6.58836 13.8544 7.19025 12.7965C7.79213 11.7387 8.39401 10.699 9.01413 9.6412C9.54306 8.71101 10.0902 7.78083 10.6192 6.85065C11.0204 6.15757 11.4217 5.48273 11.8047 4.78966C11.9324 4.57079 12.06 4.35193 12.1877 4.13306C12.2607 4.02363 12.3336 3.91419 12.3883 3.78652C12.3883 3.76828 12.4066 3.75004 12.4066 3.75004C12.3883 3.76828 12.1512 3.69533 12.133 3.75004C12.0053 3.98715 11.8594 4.20601 11.7317 4.44312C11.3852 5.06324 11.0204 5.66512 10.6739 6.28524C10.1632 7.16071 9.65249 8.05441 9.14181 8.92988C8.53992 9.95126 7.95628 10.9909 7.3544 12.0122C6.73428 13.0701 6.13239 14.1462 5.51227 15.204C4.94687 16.1889 4.38146 17.1738 3.81606 18.1587C3.36009 18.943 2.90411 19.7273 2.44814 20.5116C2.17456 20.9858 1.90098 21.46 1.62739 21.9342C1.59092 21.9889 1.57268 22.0436 1.5362 22.0983C1.51796 22.1166 1.48148 22.1531 1.49972 22.1713C1.49972 22.2078 1.60915 22.2807 1.64563 22.299C1.84626 22.4814 2.04689 22.6455 2.24752 22.8279C2.90411 23.4115 3.57895 23.9769 4.23555 24.5606C4.34498 24.6518 4.45442 24.743 4.56385 24.8342C4.60033 24.8706 4.80096 24.8524 4.83743 24.8342C5.65818 24.1229 6.46069 23.4298 7.28144 22.7185C7.50031 22.5361 7.70094 22.3537 7.9198 22.1713C7.82861 22.1713 7.73741 22.1713 7.64622 22.1713C8.46697 22.8826 9.26948 23.5757 10.0902 24.287C10.3091 24.4694 10.5097 24.6518 10.7286 24.8342C10.7651 24.8706 10.9657 24.8524 11.0022 24.8342C11.8229 24.1229 12.6254 23.4298 13.4462 22.7185C13.665 22.5361 13.8657 22.3537 14.0845 22.1713C13.9933 22.1713 13.9021 22.1713 13.811 22.1713C14.6317 22.8826 15.4342 23.5757 16.255 24.287C16.4738 24.4694 16.6745 24.6518 16.8933 24.8342C16.9298 24.8706 17.1304 24.8524 17.1669 24.8342C17.9877 24.1229 18.7902 23.4298 19.6109 22.7185C19.8298 22.5361 20.0304 22.3537 20.2493 22.1713C20.1581 22.1713 20.0669 22.1713 19.9757 22.1713C20.7964 22.8826 21.5989 23.5757 22.4197 24.287C22.6386 24.4694 22.8392 24.6518 23.0581 24.8342C23.0945 24.8706 23.2952 24.8524 23.3316 24.8342C24.0065 24.2505 24.6813 23.6669 25.3379 23.0832C25.5933 22.8644 25.8486 22.6455 26.0857 22.4266C26.1587 22.3537 26.2499 22.2807 26.3228 22.2078C26.3411 22.2078 26.3775 22.1713 26.3775 22.1531C26.3775 22.0983 26.2681 21.9707 26.2499 21.9342C25.958 21.4417 25.6662 20.9311 25.3926 20.4386C24.9002 19.5814 24.4077 18.7242 23.897 17.8669C23.2587 16.7726 22.6386 15.6783 22.0002 14.5839C21.3071 13.3802 20.6141 12.1946 19.921 10.9909C19.2279 9.80535 18.5531 8.61982 17.86 7.43429C17.2581 6.39468 16.6745 5.3733 16.0726 4.33369C15.6348 3.56765 15.1971 2.80162 14.7411 2.03559C14.5223 1.67081 14.3216 1.2878 14.1028 0.923019C14.0845 0.90478 14.0845 0.88654 14.0845 0.868302C14.0845 0.813585 13.8474 0.90478 13.8292 0.886541Z" fill="white"/>
<path d="M26.2682 22.1714C26.2682 22.1167 26.2682 22.0802 26.2682 22.0255C25.4474 22.7368 24.6267 23.4481 23.8059 24.1594C23.6782 24.2689 23.5506 24.3783 23.4229 24.506C23.3864 24.5425 23.3317 24.5789 23.2952 24.6154C23.277 24.6337 23.2405 24.6884 23.2223 24.6884C23.1858 24.6884 23.1493 24.6519 23.1311 24.6154C23.0216 24.5242 22.9122 24.4148 22.7845 24.3236C22.4015 23.9771 22.0003 23.6488 21.6173 23.3022C21.3802 23.0833 21.1248 22.8827 20.8877 22.6639C20.7418 22.5362 20.5959 22.4085 20.45 22.2808C20.3588 22.2079 20.2858 22.1167 20.1764 22.0437C20.1217 22.0073 20.1399 22.0073 20.1034 22.0437C20.0122 22.1349 19.921 22.2079 19.8116 22.2991C19.5198 22.5362 19.2462 22.7915 18.9544 23.0286C18.6078 23.3387 18.2613 23.6305 17.8965 23.9406C17.6412 24.1594 17.3858 24.3783 17.1305 24.5972C17.094 24.6336 17.0758 24.6701 17.0393 24.6519C17.0211 24.6519 16.9846 24.5972 16.9663 24.5789C16.9116 24.5425 16.8752 24.4877 16.8204 24.4513C15.9267 23.667 15.033 22.901 14.1211 22.1167C14.1028 22.0984 14.0116 21.989 13.9752 21.989C13.9387 21.989 13.8475 22.0984 13.811 22.1349C13.5374 22.372 13.2639 22.6091 12.9903 22.8462C12.6437 23.1381 12.2972 23.4481 11.9507 23.7399C11.6771 23.9771 11.4035 24.2142 11.1299 24.4513C11.0934 24.4877 11.0387 24.5242 11.0022 24.5607C10.984 24.5789 10.9475 24.6154 10.9293 24.6336C10.8928 24.6336 10.8563 24.5789 10.8198 24.5607C10.3456 24.1594 9.87143 23.7399 9.39722 23.3387C8.97772 22.9739 8.55823 22.6091 8.13874 22.2626C8.04754 22.1896 7.97459 22.0984 7.86515 22.0255C7.81044 21.989 7.82867 21.989 7.77396 22.0437C7.53685 22.2444 7.29975 22.445 7.06264 22.6639C6.71611 22.9739 6.35133 23.284 6.00479 23.594C5.71297 23.8494 5.43938 24.0865 5.14756 24.3418C5.03813 24.433 4.94693 24.5242 4.8375 24.6154C4.80102 24.6519 4.78278 24.6884 4.74631 24.6701C4.72807 24.6701 4.67335 24.6154 4.65511 24.5972C4.6004 24.5607 4.54568 24.506 4.5092 24.4695C4.38153 24.3601 4.23562 24.2324 4.10795 24.123C3.8526 23.9041 3.59726 23.667 3.32368 23.4481C2.94066 23.1198 2.55764 22.7733 2.17463 22.445C2.01048 22.2991 1.84633 22.1714 1.68218 22.0255C1.70042 22.0437 1.68218 22.1532 1.68218 22.1714C1.68218 22.1896 1.66394 22.2991 1.68218 22.3173C2.50293 23.0286 3.32368 23.7399 4.14443 24.4513C4.2721 24.5607 4.41801 24.6884 4.54568 24.7978C4.58216 24.8343 4.69159 24.9619 4.74631 24.9619C4.78278 24.9619 4.8375 24.9072 4.85574 24.889C4.96517 24.7796 5.09285 24.6884 5.20228 24.5789C5.58529 24.2506 5.98655 23.9041 6.36957 23.5758C6.62491 23.3569 6.88025 23.1381 7.1356 22.9192C7.26327 22.8098 7.40918 22.6821 7.53685 22.5727C7.60981 22.4997 7.701 22.3903 7.7922 22.3538C7.82868 22.3356 7.82868 22.3538 7.88339 22.3903C7.97459 22.4815 8.08402 22.5544 8.17521 22.6456C8.46704 22.901 8.74062 23.1381 9.03244 23.3934C9.37898 23.7035 9.74376 24.0135 10.0903 24.3236C10.3274 24.5425 10.5827 24.7431 10.8198 24.9619C10.8746 24.9984 10.8563 25.0167 10.911 24.9802C11.0022 24.9255 11.0934 24.8343 11.1664 24.7613C12.0601 23.9771 12.9538 23.211 13.8475 22.4267C13.8657 22.4085 13.9205 22.3356 13.9569 22.3538C13.9752 22.3538 14.0117 22.4085 14.0299 22.4085C14.0846 22.445 14.1211 22.4997 14.1758 22.5362C14.4494 22.7733 14.723 23.0104 14.9965 23.2475C15.3431 23.5576 15.7079 23.8494 16.0544 24.1594C16.328 24.3965 16.6016 24.6336 16.8569 24.8708C16.8752 24.889 16.9846 24.9984 17.0211 24.9984C17.0575 24.9984 17.1487 24.889 17.167 24.8708C17.6229 24.4695 18.0972 24.0682 18.5531 23.667C18.9909 23.284 19.4286 22.901 19.8663 22.5179C19.9028 22.4815 19.9575 22.445 19.994 22.4085C20.0122 22.3903 20.0487 22.3538 20.067 22.3356C20.1034 22.3356 20.1399 22.3903 20.1764 22.4085C20.4317 22.6274 20.7053 22.8645 20.9607 23.0833C21.3072 23.3934 21.6537 23.6852 22.0003 23.9953C22.2921 24.2506 22.5657 24.4877 22.8575 24.7431C22.9305 24.816 23.0217 24.9072 23.1128 24.9619C23.1676 24.9802 23.1493 24.9802 23.204 24.9437C24.0795 24.1777 24.9732 23.4116 25.8487 22.6456C25.9399 22.5544 26.0493 22.4815 26.1405 22.3903C26.2864 22.2991 26.2682 22.2991 26.2682 22.1714C26.2682 22.1532 26.2682 22.0255 26.2682 22.0255V22.1714Z" fill="white"/>
</svg>
